#tb 0: 1/25
#media_type 0: video
#codec_id 0: rawvideo
#dimensions 0: 256x288
#sar 0: 1/1
0,          0,          0,        1,   221184, 0x804231fa
0,          1,          1,        1,   221184, 0x323b31ea
0,          2,          2,        1,   221184, 0x19cb31ce
0,          3,          3,        1,   221184, 0x8d8531f0
0,          4,          4,        1,   221184, 0x026f31f6
0,          5,          5,        1,   221184, 0x04f431d2
0,          6,          6,        1,   221184, 0x41a231da
0,          7,          7,        1,   221184, 0xaa8031ea
0,          8,          8,        1,   221184, 0x816f31f6
0,          9,          9,        1,   221184, 0x4b563202
0,         10,         10,        1,   221184, 0x690031f6
0,         11,         11,        1,   221184, 0x7f4631f6
0,         12,         12,        1,   221184, 0x6b0131f4
0,         13,         13,        1,   221184, 0x74f031d6
0,         14,         14,        1,   221184, 0xc46a31fe
0,         15,         15,        1,   221184, 0xef6f31ea
0,         16,         16,        1,   221184, 0x3f1c3204
0,         17,         17,        1,   221184, 0xa2873204
0,         18,         18,        1,   221184, 0xd9093202
0,         19,         19,        1,   221184, 0x3a3d31e2
0,         20,         20,        1,   221184, 0x57283204
0,         21,         21,        1,   221184, 0x6b433204
0,         22,         22,        1,   221184, 0x36c53202
0,         23,         23,        1,   221184, 0xe7483204
0,         24,         24,        1,   221184, 0x114e3202
0,         25,         25,        1,   221184, 0xd39031f6
0,         26,         26,        1,   221184, 0x14463202
0,         27,         27,        1,   221184, 0xd82231fe
0,         28,         28,        1,   221184, 0xcea631f8
0,         29,         29,        1,   221184, 0x12cb3204
0,         30,         30,        1,   221184, 0xb59031fe
0,         31,         31,        1,   221184, 0xbcc13200
0,         32,         32,        1,   221184, 0xb0f83204
0,         33,         33,        1,   221184, 0xc8953204
0,         34,         34,        1,   221184, 0x3dd33204
0,         35,         35,        1,   221184, 0x3c3f31f8
0,         36,         36,        1,   221184, 0x4ef531ea
0,         37,         37,        1,   221184, 0xc19731d0
0,         38,         38,        1,   221184, 0xacd731f4
0,         39,         39,        1,   221184, 0x39e33204
0,         40,         40,        1,   221184, 0x6e5e3204
0,         41,         41,        1,   221184, 0xed3a3200
0,         42,         42,        1,   221184, 0xce4e31f4
0,         43,         43,        1,   221184, 0x5df731cc
0,         44,         44,        1,   221184, 0x049431dc
0,         45,         45,        1,   221184, 0x1a7d31c2
0,         46,         46,        1,   221184, 0x101c31e0
0,         47,         47,        1,   221184, 0xfa4a31e2
0,         48,         48,        1,   221184, 0x56a63200
0,         49,         49,        1,   221184, 0xf6b631ee
